<svg width="720" height="240" viewBox="0 0 720 240" fill="none" xmlns="http://www.w3.org/2000/svg">
  <defs>
    <linearGradient id="sheet" x1="34" y1="28" x2="224" y2="194" gradientUnits="userSpaceOnUse">
      <stop stop-color="#FFFFFF"/>
      <stop offset="1" stop-color="#E4EEF9"/>
    </linearGradient>
    <linearGradient id="ring" x1="109" y1="63" x2="208" y2="161" gradientUnits="userSpaceOnUse">
      <stop stop-color="#4E628C"/>
      <stop offset="1" stop-color="#2D4169"/>
    </linearGradient>
    <linearGradient id="handle" x1="189" y1="144" x2="270" y2="214" gradientUnits="userSpaceOnUse">
      <stop stop-color="#7CB3FF"/>
      <stop offset="1" stop-color="#2F6FED"/>
    </linearGradient>
    <filter id="shadow" x="8" y="20" width="298" height="207" filterUnits="userSpaceOnUse" color-interpolation-filters="sRGB">
      <feDropShadow dx="0" dy="18" stdDeviation="16" flood-color="#9BB8DD" flood-opacity="0.32"/>
    </filter>
  </defs>

  <g filter="url(#shadow)">
    <rect x="34" y="34" width="184" height="156" rx="28" fill="url(#sheet)" stroke="#B7CBE5" stroke-width="8"/>
    <rect x="61" y="60" width="100" height="10" rx="5" fill="#9DB9DB"/>
    <rect x="61" y="86" width="118" height="10" rx="5" fill="#C7D6EA"/>
    <rect x="61" y="114" width="122" height="14" rx="7" fill="#F7616B"/>
    <rect x="61" y="144" width="114" height="10" rx="5" fill="#C7D6EA"/>
    <rect x="61" y="170" width="98" height="10" rx="5" fill="#A5BDD8"/>
    <circle cx="158" cy="114" r="44" fill="none" stroke="url(#ring)" stroke-width="12"/>
    <circle cx="183" cy="88" r="8.5" fill="white"/>
    <rect x="190" y="142" width="74" height="30" rx="15" transform="rotate(42 190 142)" fill="url(#handle)"/>
    <rect x="196" y="147" width="44" height="20" rx="10" transform="rotate(42 196 147)" fill="#99C5FF" fill-opacity="0.45"/>
  </g>

  <text x="292" y="154" fill="#334767" font-family="Inter, Arial, sans-serif" font-size="86" font-weight="700" letter-spacing="-1.2">
    Synergy
  </text>
</svg>
